# xmcd
#
# Track frame offsets:
#	150
#	41583
#	79218
#	104244
#	153116
#	174945
#	202731
#	257870
#
# Disc length: 4604 seconds
#
# Revision: 0
# Processed by: cddbd v1.5.2PL0 Copyright (c) Steve Scherf et al.
# Submitted via: EZCDAudioConverter 1.3.4.1
#
DISCID=6011fa08
DTITLE=Tangerine Dream - Ride On The Ray 2/2
DYEAR=2011
DGENRE=
TTITLE0=Vanishing Blue
TTITLE1=Song Of The Whale Part 1: From Dawn...
TTITLE2=Ride On The Ray
TTITLE3=Song Of The Whale Part 2: ...To Dusk
TTITLE4=21st Century Common Man (Part 1)
TTITLE5=Smile
TTITLE6=Alchemy Of The Heart
TTITLE7=Live Miles [Albuquerque Excerpt]
EXTD=
EXTT0=
EXTT1=
EXTT2=
EXTT3=
EXTT4=
EXTT5=
EXTT6=
EXTT7=
PLAYORDER=
